<?xml version="1.0" encoding="UTF-8"?>
<svg id="Ebene_2" data-name="Ebene 2" xmlns="http://www.w3.org/2000/svg" viewBox="0 0 236.06 105.79">
  <defs>
    <style>
      .cls-1 {
        fill: #1a171b;
      }

      .cls-2 {
        fill: #e2001a;
      }
    </style>
  </defs>
  <g id="Layer_1" data-name="Layer 1">
    <g>
      <g>
        <path class="cls-2" d="M12.88,21.9H0V2.46h35.84v88.31H12.88V21.9Z"/>
        <path class="cls-2" d="M59.38,44.16c-9.21-3.83-13.82-10.31-13.82-19.44,0-3.75.74-7.12,2.23-10.13,1.48-3,3.53-5.6,6.15-7.79,2.62-2.19,5.78-3.87,9.49-5.04,3.71-1.17,7.79-1.76,12.24-1.76s8.53.59,12.24,1.76c3.71,1.17,6.87,2.85,9.49,5.04,2.62,2.19,4.67,4.78,6.15,7.79,1.48,3.01,2.23,6.38,2.23,10.13,0,2.34-.23,4.43-.7,6.27-.47,1.84-1.27,3.51-2.4,5.04-1.13,1.52-2.62,2.95-4.45,4.28-1.84,1.33-4.12,2.62-6.85,3.87,12.02,4.69,18.04,12.26,18.04,22.72,0,3.75-.84,7.22-2.52,10.42-1.68,3.2-4.02,5.97-7.03,8.32-3.01,2.34-6.56,4.18-10.66,5.51-4.1,1.33-8.61,1.99-13.53,1.99s-9.19-.64-13.29-1.93c-4.1-1.29-7.67-3.1-10.72-5.45-3.05-2.34-5.43-5.11-7.15-8.32-1.72-3.2-2.58-6.71-2.58-10.54,0-10.7,5.82-18.27,17.45-22.72ZM65.12,64.07c0,1.48.27,2.89.82,4.22.55,1.33,1.29,2.48,2.23,3.46.94.98,2.05,1.76,3.34,2.34,1.29.59,2.67.88,4.16.88,1.41,0,2.75-.29,4.04-.88,1.29-.59,2.42-1.37,3.4-2.34.98-.98,1.74-2.11,2.28-3.4.55-1.29.82-2.67.82-4.16,0-2.97-1.04-5.48-3.1-7.55-2.07-2.07-4.55-3.1-7.44-3.1s-5.47,1.04-7.5,3.1c-2.03,2.07-3.05,4.55-3.05,7.44ZM65.94,24.95c0,2.73.94,5.06,2.81,6.97,1.87,1.91,4.18,2.87,6.91,2.87,1.41,0,2.69-.27,3.86-.82,1.17-.55,2.19-1.27,3.05-2.17.86-.9,1.54-1.93,2.05-3.1.51-1.17.76-2.38.76-3.63,0-2.65-.94-4.94-2.81-6.85-1.87-1.91-4.18-2.87-6.91-2.87s-5.04.94-6.91,2.81-2.81,4.14-2.81,6.79Z"/>
      </g>
      <circle class="cls-2" cx="124.11" cy="81.3" r="9.66"/>
      <g>
        <path class="cls-1" d="M125.54,7.25c-.52-.42-1.04-.73-1.56-.94-.52-.2-1.02-.3-1.51-.3-.62,0-1.12.15-1.51.44-.39.29-.58.67-.58,1.14,0,.32.1.59.29.8s.45.39.77.55.67.29,1.07.4c.4.11.79.24,1.18.37,1.56.52,2.7,1.21,3.42,2.08.72.87,1.08,2,1.08,3.39,0,.94-.16,1.79-.47,2.55-.32.76-.78,1.42-1.39,1.96-.61.54-1.35.97-2.24,1.27-.88.3-1.89.45-3.01.45-2.32,0-4.47-.69-6.45-2.07l2.04-3.84c.71.63,1.42,1.1,2.12,1.41s1.39.46,2.07.46c.78,0,1.36-.18,1.74-.54.38-.36.57-.76.57-1.22,0-.28-.05-.52-.15-.72s-.26-.39-.49-.56c-.23-.17-.52-.33-.89-.47s-.81-.31-1.33-.49c-.62-.19-1.22-.41-1.81-.65-.59-.23-1.12-.55-1.58-.94-.46-.39-.84-.88-1.12-1.47-.28-.59-.43-1.34-.43-2.25s.15-1.73.45-2.47c.3-.74.72-1.37,1.27-1.9.54-.53,1.21-.94,2-1.23.79-.29,1.67-.44,2.64-.44.91,0,1.86.13,2.85.38.99.25,1.94.62,2.85,1.11l-1.9,3.72Z"/>
        <path class="cls-1" d="M128.53,11.73c0-1.36.25-2.63.75-3.81.5-1.18,1.2-2.2,2.09-3.08.89-.88,1.96-1.56,3.2-2.06,1.24-.49,2.61-.74,4.1-.74s2.84.25,4.09.74c1.25.5,2.32,1.18,3.22,2.06.9.88,1.6,1.9,2.1,3.08s.75,2.45.75,3.81-.25,2.63-.75,3.81c-.5,1.18-1.2,2.2-2.1,3.08-.9.88-1.98,1.56-3.22,2.06-1.25.49-2.61.74-4.09.74s-2.86-.25-4.1-.74c-1.24-.5-2.31-1.18-3.2-2.06-.89-.88-1.59-1.9-2.09-3.08-.5-1.18-.75-2.45-.75-3.81ZM133.52,11.73c0,.73.14,1.4.41,2.02.28.62.65,1.15,1.12,1.61.47.45,1.02.81,1.64,1.06.62.25,1.29.38,1.98.38s1.36-.13,1.98-.38c.62-.25,1.18-.6,1.65-1.06.48-.45.86-.99,1.13-1.61.28-.62.41-1.29.41-2.02s-.14-1.4-.41-2.02c-.28-.62-.65-1.15-1.13-1.61s-1.03-.81-1.65-1.06c-.62-.25-1.29-.38-1.98-.38s-1.36.13-1.98.38c-.62.25-1.17.6-1.64,1.06s-.84.99-1.12,1.61c-.28.62-.41,1.29-.41,2.02Z"/>
        <path class="cls-1" d="M154.81,2.56v14.31h5.72v4.04h-10.49V2.56h4.77Z"/>
        <path class="cls-1" d="M166.46,2.56v18.35h-4.77V2.56h4.77Z"/>
        <path class="cls-1" d="M168.48,20.91V2.56h4.77l8.81,11.22V2.56h4.75v18.35h-4.75l-8.81-11.22v11.22h-4.77Z"/>
        <path class="cls-1" d="M198.09,10.64h9.47c0,.97-.04,1.86-.12,2.65-.08.8-.24,1.53-.49,2.21-.34.96-.8,1.8-1.39,2.54-.58.74-1.27,1.35-2.06,1.85-.79.5-1.65.87-2.59,1.13-.94.26-1.93.39-2.97.39-1.43,0-2.73-.24-3.91-.71-1.18-.47-2.19-1.13-3.03-1.98-.84-.85-1.5-1.87-1.97-3.07s-.71-2.51-.71-3.95.23-2.74.69-3.93c.46-1.19,1.12-2.21,1.97-3.05.85-.84,1.88-1.5,3.08-1.97,1.2-.47,2.54-.71,4.01-.71,1.91,0,3.59.41,5.04,1.24,1.44.83,2.59,2.11,3.43,3.84l-4.53,1.87c-.42-1.01-.97-1.73-1.64-2.17s-1.44-.66-2.3-.66c-.71,0-1.36.13-1.95.4s-1.08.65-1.5,1.14c-.41.5-.74,1.09-.97,1.79-.24.7-.35,1.48-.35,2.34,0,.78.1,1.5.3,2.17.2.67.51,1.24.91,1.73s.91.86,1.51,1.13,1.3.4,2.09.4c.47,0,.92-.05,1.36-.16.44-.11.83-.28,1.18-.51.35-.23.64-.54.86-.91.23-.37.38-.83.46-1.36h-3.92v-3.7Z"/>
        <path class="cls-1" d="M219.19,6.6h-5.67v3.07h5.35v4.04h-5.35v3.16h5.67v4.04h-10.44V2.56h10.44v4.04Z"/>
        <path class="cls-1" d="M236.06,20.91h-5.94l-4.55-7.06v7.06h-4.77V2.56h7.42c1.02,0,1.91.15,2.68.45.76.3,1.39.71,1.89,1.23.49.52.87,1.12,1.12,1.8.25.68.38,1.41.38,2.19,0,1.4-.34,2.53-1.01,3.39-.67.87-1.67,1.46-2.98,1.76l5.77,7.52ZM225.57,10.76h.9c.94,0,1.66-.19,2.17-.58.5-.39.75-.95.75-1.68s-.25-1.29-.75-1.68c-.5-.39-1.22-.58-2.17-.58h-.9v4.53Z"/>
      </g>
      <g>
        <path class="cls-1" d="M125.3,39.16c-.51-.41-1.02-.72-1.53-.92-.51-.2-1-.3-1.48-.3-.6,0-1.1.14-1.48.43-.38.29-.57.66-.57,1.12,0,.32.1.58.29.79.19.21.44.39.75.54.31.15.66.28,1.05.39.39.11.78.23,1.16.36,1.53.51,2.64,1.19,3.35,2.04.71.85,1.06,1.96,1.06,3.33,0,.92-.16,1.76-.46,2.5-.31.75-.76,1.39-1.36,1.92s-1.33.95-2.19,1.24c-.87.29-1.85.44-2.95.44-2.27,0-4.38-.68-6.32-2.03l2-3.77c.7.62,1.39,1.08,2.08,1.38.68.3,1.36.45,2.03.45.76,0,1.33-.18,1.71-.52.37-.35.56-.75.56-1.19,0-.27-.05-.5-.14-.7-.1-.2-.25-.38-.48-.55s-.51-.32-.87-.47c-.36-.14-.79-.3-1.3-.48-.6-.19-1.2-.4-1.78-.63-.58-.23-1.1-.54-1.55-.92-.45-.38-.82-.86-1.1-1.44-.28-.58-.42-1.32-.42-2.21s.15-1.7.44-2.42c.29-.72.71-1.34,1.24-1.86.53-.52,1.19-.92,1.96-1.21.77-.29,1.63-.43,2.59-.43.89,0,1.82.12,2.79.37.97.25,1.9.61,2.79,1.09l-1.86,3.65Z"/>
        <path class="cls-1" d="M141,49.42h-6.68l-1.07,3.12h-4.99l6.85-17.99h5.11l6.85,17.99h-4.99l-1.07-3.12ZM139.76,45.87l-2.1-5.99-2.1,5.99h4.2Z"/>
        <path class="cls-1" d="M147.77,52.54l3.05-17.99h4.63l3.6,9.59,3.58-9.59h4.63l3.05,17.99h-4.65l-1.55-10.35-4.25,10.35h-1.86l-4.03-10.35-1.55,10.35h-4.65Z"/>
        <path class="cls-1" d="M182.63,39.16c-.51-.41-1.02-.72-1.53-.92-.51-.2-1-.3-1.48-.3-.61,0-1.1.14-1.48.43s-.57.66-.57,1.12c0,.32.09.58.29.79.19.21.44.39.75.54.31.15.66.28,1.05.39.39.11.78.23,1.16.36,1.53.51,2.64,1.19,3.35,2.04.71.85,1.06,1.96,1.06,3.33,0,.92-.15,1.76-.46,2.5-.31.75-.76,1.39-1.36,1.92-.6.53-1.33.95-2.2,1.24s-1.85.44-2.95.44c-2.27,0-4.38-.68-6.32-2.03l2-3.77c.7.62,1.39,1.08,2.08,1.38.68.3,1.36.45,2.03.45.76,0,1.33-.18,1.71-.52.37-.35.56-.75.56-1.19,0-.27-.05-.5-.14-.7-.09-.2-.25-.38-.48-.55s-.51-.32-.87-.47c-.36-.14-.79-.3-1.3-.48-.6-.19-1.2-.4-1.78-.63-.58-.23-1.1-.54-1.55-.92s-.82-.86-1.1-1.44-.42-1.32-.42-2.21.15-1.7.44-2.42c.29-.72.71-1.34,1.24-1.86.53-.52,1.18-.92,1.96-1.21.77-.29,1.63-.43,2.59-.43.89,0,1.82.12,2.79.37.97.25,1.9.61,2.79,1.09l-1.86,3.65Z"/>
        <path class="cls-1" d="M194.58,38.52v14.03h-4.68v-14.03h-3.84v-3.96h12.36v3.96h-3.84Z"/>
        <path class="cls-1" d="M210.16,49.42h-6.68l-1.07,3.12h-4.99l6.85-17.99h5.11l6.85,17.99h-4.99l-1.07-3.12ZM208.92,45.87l-2.1-5.99-2.1,5.99h4.2Z"/>
        <path class="cls-1" d="M225.93,42.48h9.28c0,.95-.04,1.82-.12,2.6-.08.78-.24,1.5-.48,2.17-.33.94-.79,1.77-1.36,2.49-.57.72-1.24,1.33-2.02,1.81-.77.49-1.62.86-2.54,1.11-.92.25-1.89.38-2.91.38-1.4,0-2.68-.23-3.83-.69s-2.14-1.11-2.97-1.94c-.83-.83-1.47-1.84-1.93-3.01-.46-1.17-.69-2.46-.69-3.88s.23-2.68.68-3.85c.45-1.17,1.1-2.17,1.93-2.99.83-.83,1.84-1.47,3.02-1.93,1.18-.46,2.49-.69,3.94-.69,1.88,0,3.52.41,4.94,1.22,1.42.81,2.54,2.07,3.36,3.77l-4.44,1.84c-.41-.99-.95-1.69-1.61-2.12-.66-.43-1.41-.64-2.25-.64-.7,0-1.34.13-1.91.39-.57.26-1.06.64-1.47,1.12-.41.49-.72,1.07-.95,1.75-.23.68-.35,1.45-.35,2.29,0,.76.1,1.47.3,2.12.2.65.5,1.22.89,1.69.4.48.89.85,1.48,1.11.59.26,1.27.39,2.05.39.46,0,.91-.05,1.34-.15.43-.1.82-.27,1.16-.5.34-.23.62-.53.85-.89.22-.37.37-.81.45-1.34h-3.84v-3.63Z"/>
      </g>
      <g>
        <path class="cls-1" d="M121.07,24.87c-.33-.26-.65-.46-.98-.59-.33-.13-.64-.19-.95-.19-.39,0-.7.09-.95.27s-.37.42-.37.72c0,.2.06.37.18.5s.28.25.48.34c.2.1.42.18.67.25.25.07.5.15.74.23.98.33,1.69.76,2.14,1.31s.68,1.25.68,2.13c0,.59-.1,1.12-.3,1.6s-.49.89-.87,1.23c-.38.34-.85.61-1.4.79-.55.19-1.18.28-1.89.28-1.46,0-2.8-.43-4.05-1.3l1.28-2.41c.45.4.89.69,1.33.89s.87.29,1.3.29c.49,0,.85-.11,1.09-.34.24-.22.36-.48.36-.76,0-.17-.03-.32-.09-.45-.06-.13-.16-.24-.31-.35-.14-.11-.33-.21-.56-.3-.23-.09-.51-.19-.83-.31-.39-.12-.77-.26-1.14-.4-.37-.15-.7-.34-.99-.59-.29-.24-.52-.55-.7-.92-.18-.37-.27-.84-.27-1.41s.09-1.09.28-1.55c.19-.46.45-.86.79-1.19.34-.33.76-.59,1.25-.77.49-.18,1.05-.27,1.66-.27.57,0,1.17.08,1.79.24s1.22.39,1.79.69l-1.19,2.34Z"/>
        <path class="cls-1" d="M131.77,25.77c-.69-.84-1.55-1.27-2.57-1.27-.45,0-.86.08-1.24.24s-.71.38-.99.66c-.27.28-.49.61-.65,1-.16.39-.24.8-.24,1.25s.08.88.24,1.27.38.72.66,1.01c.28.29.61.51.98.67.38.16.78.24,1.22.24.96,0,1.82-.41,2.58-1.22v3.54l-.31.11c-.46.16-.89.28-1.28.36s-.79.11-1.18.11c-.79,0-1.55-.15-2.28-.45-.73-.3-1.37-.72-1.92-1.27s-1-1.19-1.34-1.94c-.34-.75-.5-1.56-.5-2.45s.17-1.7.5-2.44c.33-.74.77-1.37,1.33-1.91.55-.53,1.2-.95,1.93-1.25.73-.3,1.5-.45,2.31-.45.46,0,.91.05,1.35.15.44.1.91.25,1.4.45v3.57Z"/>
        <path class="cls-1" d="M136.02,26.37h4.32v-4.44h2.99v11.51h-2.99v-4.75h-4.32v4.75h-2.99v-11.51h2.99v4.44Z"/>
        <path class="cls-1" d="M144.61,33.44v-11.51h2.99l5.53,7.04v-7.04h2.98v11.51h-2.98l-5.53-7.04v7.04h-2.99Z"/>
        <path class="cls-1" d="M163.94,24.46h-3.56v1.92h3.36v2.53h-3.36v1.98h3.56v2.53h-6.55v-11.51h6.55v2.53Z"/>
        <path class="cls-1" d="M167.96,21.93v11.51h-2.99v-11.51h2.99Z"/>
        <path class="cls-1" d="M169.24,21.93h4.43c.78,0,1.52.16,2.21.47.69.32,1.29.74,1.8,1.26.51.52.92,1.14,1.21,1.83.29.7.44,1.43.44,2.19s-.15,1.48-.44,2.18c-.29.7-.69,1.31-1.21,1.84-.51.53-1.11.95-1.8,1.27s-1.43.47-2.22.47h-4.43v-11.51ZM172.23,30.9h.69c.52,0,.98-.08,1.39-.24.41-.16.75-.39,1.03-.67.28-.28.49-.62.64-1.02.15-.39.22-.82.22-1.29s-.08-.89-.23-1.28-.37-.74-.65-1.02c-.28-.29-.62-.51-1.03-.67-.41-.16-.87-.24-1.37-.24h-.69v6.44Z"/>
        <path class="cls-1" d="M181.8,21.93l1.99,7.44,2.44-7.44h2.38l2.44,7.44,1.98-7.44h3.13l-3.43,11.51h-3.05l-2.26-6.67-2.26,6.67h-3.05l-3.44-11.51h3.13Z"/>
        <path class="cls-1" d="M202.69,31.44h-4.27l-.69,2h-3.19l4.38-11.51h3.27l4.38,11.51h-3.19l-.69-2ZM201.9,29.16l-1.34-3.83-1.34,3.83h2.69Z"/>
        <path class="cls-1" d="M216.33,33.44h-3.73l-2.85-4.43v4.43h-2.99v-11.51h4.66c.64,0,1.2.09,1.68.28.48.19.87.45,1.18.77.31.33.54.7.7,1.13.16.43.24.89.24,1.37,0,.88-.21,1.59-.63,2.13-.42.54-1.05.91-1.87,1.11l3.62,4.72ZM209.75,27.07h.56c.59,0,1.04-.12,1.36-.37.31-.24.47-.6.47-1.05s-.16-.81-.47-1.05c-.32-.24-.77-.37-1.36-.37h-.56v2.84Z"/>
        <path class="cls-1" d="M223,24.46h-3.56v1.92h3.36v2.53h-3.36v1.98h3.56v2.53h-6.55v-11.51h6.55v2.53Z"/>
        <path class="cls-1" d="M224.02,33.44v-11.51h2.99l5.53,7.04v-7.04h2.98v11.51h-2.98l-5.53-7.04v7.04h-2.99Z"/>
      </g>
      <g>
        <path class="cls-1" d="M114.61,57.94c0-.48.06-.91.19-1.3.12-.39.3-.72.52-1,.22-.27.49-.49.8-.64.31-.15.65-.23,1.03-.23s.71.08,1.02.23c.31.15.58.36.8.64.22.27.4.61.52,1,.12.39.19.82.19,1.3s-.06.91-.19,1.3c-.12.39-.3.72-.52,1-.22.28-.49.49-.8.64-.31.15-.65.23-1.02.23s-.72-.08-1.03-.23c-.31-.15-.58-.36-.8-.64-.23-.28-.4-.61-.52-1-.12-.39-.19-.82-.19-1.3ZM116.14,57.94c0,.26.02.5.07.72s.12.4.2.56c.09.16.19.28.31.37.12.09.26.13.41.13s.28-.04.41-.13c.12-.09.23-.21.31-.37.08-.16.15-.35.2-.56.05-.22.07-.46.07-.72s-.02-.5-.07-.72c-.05-.22-.11-.41-.2-.56-.08-.16-.19-.28-.31-.37-.12-.09-.26-.13-.41-.13s-.29.04-.41.13c-.12.09-.23.21-.31.37-.09.16-.15.34-.2.56s-.07.46-.07.72Z"/>
        <path class="cls-1" d="M124.28,56.27h-2.07l-.1.66c.09-.01.18-.02.26-.03s.16-.01.25-.01c.3,0,.58.05.84.16.26.11.48.25.67.44.18.19.33.41.44.67.11.26.16.54.16.85,0,.32-.06.61-.18.87-.12.26-.29.48-.5.66-.22.18-.48.32-.79.42-.31.1-.66.15-1.04.15-.36,0-.7-.04-1.03-.13s-.63-.22-.92-.4l.23-1.46c.26.23.53.4.81.52.28.12.54.18.79.18.32,0,.57-.09.75-.26.19-.17.28-.38.28-.64,0-.3-.12-.54-.37-.72-.25-.18-.57-.27-.98-.27-.18,0-.37.02-.56.06s-.38.1-.56.19l.5-3.21h3.13v1.32Z"/>
        <path class="cls-1" d="M125.65,60.18c0-.13.02-.25.07-.36.05-.11.11-.21.2-.3.08-.08.18-.15.3-.2.11-.05.23-.07.36-.07s.25.02.36.07c.11.05.21.11.3.2.08.08.15.18.2.3s.07.23.07.36-.02.25-.07.36-.11.21-.2.3c-.08.08-.18.15-.3.2-.11.05-.23.07-.36.07s-.25-.02-.36-.07c-.11-.05-.21-.11-.3-.2-.08-.08-.15-.18-.2-.3-.05-.11-.07-.23-.07-.36Z"/>
        <path class="cls-1" d="M128.09,57.94c0-.48.06-.91.19-1.3s.3-.72.52-1,.49-.49.8-.64c.31-.15.65-.23,1.03-.23s.71.08,1.02.23c.31.15.58.36.8.64.22.27.4.61.52,1,.12.39.19.82.19,1.3s-.06.91-.19,1.3c-.12.39-.3.72-.52,1-.22.28-.49.49-.8.64-.31.15-.65.23-1.02.23s-.72-.08-1.03-.23c-.31-.15-.58-.36-.8-.64-.22-.28-.4-.61-.52-1s-.19-.82-.19-1.3ZM129.63,57.94c0,.26.02.5.07.72s.12.4.2.56c.09.16.19.28.31.37.12.09.26.13.41.13s.28-.04.41-.13c.12-.09.23-.21.31-.37.08-.16.15-.35.2-.56.05-.22.07-.46.07-.72s-.02-.5-.07-.72c-.05-.22-.11-.41-.2-.56-.08-.16-.19-.28-.31-.37-.12-.09-.26-.13-.41-.13s-.29.04-.41.13c-.12.09-.23.21-.31.37-.09.16-.15.34-.2.56s-.07.46-.07.72Z"/>
        <path class="cls-1" d="M134.44,60.94l1.7-1.95h-.03c-.15.09-.27.14-.37.16-.09.02-.18.03-.25.03-.29,0-.56-.06-.8-.17-.25-.11-.46-.26-.63-.46s-.32-.42-.42-.68c-.1-.26-.15-.54-.15-.83,0-.32.06-.61.17-.88.12-.27.28-.51.5-.71.22-.2.49-.36.8-.48.31-.12.66-.17,1.05-.17s.75.06,1.06.17c.31.12.58.27.8.48.22.2.39.44.5.7.12.27.17.55.17.85,0,.34-.08.7-.23,1.1-.15.39-.38.78-.69,1.16l-1.39,1.68h-1.8ZM137.01,57.01c0-.14-.03-.27-.08-.38-.05-.12-.12-.22-.21-.31s-.19-.16-.31-.21c-.12-.05-.25-.08-.38-.08s-.27.03-.38.08c-.12.05-.22.12-.31.21s-.16.19-.21.31c-.05.12-.08.25-.08.38s.03.27.08.38c.05.12.12.22.21.31s.19.16.31.21c.12.05.25.08.38.08s.27-.03.38-.08c.12-.05.22-.12.31-.21s.16-.19.21-.31c.05-.12.08-.25.08-.38Z"/>
        <path class="cls-1" d="M139.14,60.18c0-.13.02-.25.07-.36.05-.11.11-.21.2-.3.08-.08.18-.15.3-.2.11-.05.23-.07.36-.07s.25.02.36.07c.11.05.21.11.3.2.08.08.15.18.2.3s.07.23.07.36-.02.25-.07.36-.11.21-.2.3c-.08.08-.18.15-.3.2-.11.05-.23.07-.36.07s-.25-.02-.36-.07c-.11-.05-.21-.11-.3-.2-.08-.08-.15-.18-.2-.3-.05-.11-.07-.23-.07-.36Z"/>
        <path class="cls-1" d="M146.45,60.94h-4.81l1.48-1.54c.39-.41.7-.75.92-1.04.22-.28.39-.52.5-.72s.18-.35.2-.48c.03-.12.04-.22.04-.31,0-.09-.01-.18-.04-.26s-.07-.16-.13-.23c-.06-.07-.13-.12-.21-.16s-.18-.06-.29-.06c-.21,0-.38.07-.5.21-.12.14-.18.31-.18.52,0,.06,0,.14.02.25h-1.7c0-.35.06-.67.17-.95.11-.29.27-.53.48-.74.21-.21.45-.36.73-.48.28-.11.59-.17.93-.17s.64.05.92.16c.28.11.53.25.73.44s.37.42.48.68.17.55.17.85c0,.33-.07.63-.21.91-.14.28-.36.56-.67.85l-.99.93h1.93v1.32Z"/>
        <path class="cls-1" d="M146.96,57.94c0-.48.06-.91.19-1.3s.3-.72.52-1,.49-.49.8-.64c.31-.15.65-.23,1.03-.23s.71.08,1.02.23c.31.15.58.36.8.64.22.27.4.61.52,1,.12.39.19.82.19,1.3s-.06.91-.19,1.3c-.12.39-.3.72-.52,1-.22.28-.49.49-.8.64-.31.15-.65.23-1.02.23s-.72-.08-1.03-.23c-.31-.15-.58-.36-.8-.64-.22-.28-.4-.61-.52-1s-.19-.82-.19-1.3ZM148.5,57.94c0,.26.02.5.07.72s.12.4.2.56c.09.16.19.28.31.37.12.09.26.13.41.13s.28-.04.41-.13c.12-.09.23-.21.31-.37.08-.16.15-.35.2-.56.05-.22.07-.46.07-.72s-.02-.5-.07-.72c-.05-.22-.11-.41-.2-.56-.08-.16-.19-.28-.31-.37-.12-.09-.26-.13-.41-.13s-.29.04-.41.13c-.12.09-.23.21-.31.37-.09.16-.15.34-.2.56s-.07.46-.07.72Z"/>
        <path class="cls-1" d="M157.24,60.94h-4.81l1.48-1.54c.39-.41.7-.75.92-1.04.22-.28.39-.52.5-.72s.18-.35.2-.48c.03-.12.04-.22.04-.31,0-.09-.01-.18-.04-.26s-.07-.16-.13-.23c-.06-.07-.13-.12-.21-.16s-.18-.06-.29-.06c-.21,0-.38.07-.5.21-.12.14-.18.31-.18.52,0,.06,0,.14.02.25h-1.7c0-.35.06-.67.17-.95.11-.29.27-.53.48-.74.21-.21.45-.36.73-.48.28-.11.59-.17.93-.17s.64.05.92.16c.28.11.53.25.73.44s.37.42.48.68.17.55.17.85c0,.33-.07.63-.21.91-.14.28-.36.56-.67.85l-.99.93h1.93v1.32Z"/>
        <path class="cls-1" d="M161.87,54.96l-1.7,1.95h.03c.15-.09.27-.14.37-.16.09-.02.18-.03.25-.03.29,0,.56.06.8.17.24.11.45.26.63.46.18.19.32.42.42.68.1.26.15.54.15.83,0,.32-.06.61-.17.88s-.28.51-.5.71-.49.36-.8.48c-.31.12-.66.17-1.05.17s-.75-.06-1.06-.17c-.31-.12-.58-.27-.8-.48-.22-.2-.39-.43-.5-.7s-.17-.55-.17-.85c0-.34.08-.7.23-1.1s.38-.78.69-1.16l1.39-1.68h1.8ZM159.3,58.88c0,.14.03.27.08.38.05.12.12.22.21.31.09.09.19.16.31.21.12.05.25.08.38.08s.27-.03.38-.08.22-.12.31-.21c.09-.09.16-.19.21-.31.05-.12.08-.25.08-.38s-.03-.27-.08-.38-.12-.22-.21-.31c-.09-.09-.19-.16-.31-.21s-.25-.08-.38-.08-.27.03-.38.08c-.12.05-.22.12-.31.21-.09.09-.16.19-.21.31s-.08.25-.08.38Z"/>
        <path class="cls-1" d="M166.8,60.94l1.7-1.95h-.03c-.15.09-.27.14-.37.16-.09.02-.18.03-.25.03-.29,0-.56-.06-.8-.17-.25-.11-.46-.26-.63-.46s-.32-.42-.42-.68c-.1-.26-.15-.54-.15-.83,0-.32.06-.61.17-.88.12-.27.28-.51.5-.71.22-.2.49-.36.8-.48.31-.12.66-.17,1.05-.17s.75.06,1.06.17c.31.12.58.27.8.48.22.2.39.44.5.7.12.27.17.55.17.85,0,.34-.08.7-.23,1.1-.15.39-.38.78-.69,1.16l-1.39,1.68h-1.8ZM169.37,57.01c0-.14-.03-.27-.08-.38-.05-.12-.12-.22-.21-.31s-.19-.16-.31-.21c-.12-.05-.25-.08-.38-.08s-.27.03-.38.08c-.12.05-.22.12-.31.21s-.16.19-.21.31c-.05.12-.08.25-.08.38s.03.27.08.38c.05.12.12.22.21.31s.19.16.31.21c.12.05.25.08.38.08s.27-.03.38-.08c.12-.05.22-.12.31-.21s.16-.19.21-.31c.05-.12.08-.25.08-.38Z"/>
        <path class="cls-1" d="M171.5,57.5c0-.13.02-.25.07-.36.05-.11.11-.21.2-.3.08-.08.18-.15.3-.2.11-.05.23-.07.36-.07s.25.02.36.07c.11.05.21.11.3.2.08.08.15.18.2.3.05.11.07.23.07.36s-.02.25-.07.36-.11.21-.2.3c-.08.08-.18.15-.3.2-.11.05-.23.07-.36.07s-.25-.02-.36-.07c-.11-.05-.21-.11-.3-.2-.08-.08-.15-.18-.2-.3-.05-.11-.07-.23-.07-.36ZM171.5,60.18c0-.13.02-.25.07-.36.05-.11.11-.21.2-.3.08-.08.18-.15.3-.2.11-.05.23-.07.36-.07s.25.02.36.07c.11.05.21.11.3.2.08.08.15.18.2.3s.07.23.07.36-.02.25-.07.36-.11.21-.2.3c-.08.08-.18.15-.3.2-.11.05-.23.07-.36.07s-.25-.02-.36-.07c-.11-.05-.21-.11-.3-.2-.08-.08-.15-.18-.2-.3-.05-.11-.07-.23-.07-.36Z"/>
        <path class="cls-1" d="M173.93,57.94c0-.48.06-.91.19-1.3s.3-.72.52-1,.49-.49.8-.64c.31-.15.65-.23,1.03-.23s.71.08,1.02.23c.31.15.58.36.8.64.22.27.4.61.52,1,.12.39.19.82.19,1.3s-.06.91-.19,1.3c-.12.39-.3.72-.52,1-.22.28-.49.49-.8.64-.31.15-.65.23-1.02.23s-.72-.08-1.03-.23c-.31-.15-.58-.36-.8-.64-.22-.28-.4-.61-.52-1s-.19-.82-.19-1.3ZM175.47,57.94c0,.26.02.5.07.72s.12.4.2.56c.09.16.19.28.31.37.12.09.26.13.41.13s.28-.04.41-.13c.12-.09.23-.21.31-.37.08-.16.15-.35.2-.56.05-.22.07-.46.07-.72s-.02-.5-.07-.72c-.05-.22-.11-.41-.2-.56-.08-.16-.19-.28-.31-.37-.12-.09-.26-.13-.41-.13s-.29.04-.41.13c-.12.09-.23.21-.31.37-.09.16-.15.34-.2.56s-.07.46-.07.72Z"/>
        <path class="cls-1" d="M179.33,57.94c0-.48.06-.91.19-1.3s.3-.72.52-1,.49-.49.8-.64c.31-.15.65-.23,1.03-.23s.71.08,1.02.23c.31.15.58.36.8.64.22.27.4.61.52,1,.12.39.19.82.19,1.3s-.06.91-.19,1.3c-.12.39-.3.72-.52,1-.22.28-.49.49-.8.64-.31.15-.65.23-1.02.23s-.72-.08-1.03-.23c-.31-.15-.58-.36-.8-.64-.22-.28-.4-.61-.52-1s-.19-.82-.19-1.3ZM180.86,57.94c0,.26.02.5.07.72s.12.4.2.56c.09.16.19.28.31.37.12.09.26.13.41.13s.28-.04.41-.13c.12-.09.23-.21.31-.37.08-.16.15-.35.2-.56.05-.22.07-.46.07-.72s-.02-.5-.07-.72c-.05-.22-.11-.41-.2-.56-.08-.16-.19-.28-.31-.37-.12-.09-.26-.13-.41-.13s-.29.04-.41.13c-.12.09-.23.21-.31.37-.09.16-.15.34-.2.56s-.07.46-.07.72Z"/>
        <path class="cls-1" d="M187.26,58.22h2.28v1.2h-2.28v-1.2Z"/>
        <path class="cls-1" d="M194.33,56.27h-.87v-1.32h2.43v5.98h-1.55v-4.66Z"/>
        <path class="cls-1" d="M201.47,54.96l-1.7,1.95h.03c.15-.09.27-.14.37-.16.09-.02.18-.03.25-.03.29,0,.56.06.8.17.24.11.45.26.63.46.18.19.32.42.42.68.1.26.15.54.15.83,0,.32-.06.61-.17.88s-.28.51-.5.71-.49.36-.8.48c-.31.12-.66.17-1.05.17s-.75-.06-1.06-.17c-.31-.12-.58-.27-.8-.48-.22-.2-.39-.43-.5-.7s-.17-.55-.17-.85c0-.34.08-.7.23-1.1s.38-.78.69-1.16l1.39-1.68h1.8ZM198.9,58.88c0,.14.03.27.08.38.05.12.12.22.21.31.09.09.19.16.31.21.12.05.25.08.38.08s.27-.03.38-.08.22-.12.31-.21c.09-.09.16-.19.21-.31.05-.12.08-.25.08-.38s-.03-.27-.08-.38-.12-.22-.21-.31c-.09-.09-.19-.16-.31-.21s-.25-.08-.38-.08-.27.03-.38.08c-.12.05-.22.12-.31.21-.09.09-.16.19-.21.31s-.08.25-.08.38Z"/>
        <path class="cls-1" d="M203.01,57.5c0-.13.02-.25.07-.36.05-.11.11-.21.2-.3.08-.08.18-.15.3-.2.11-.05.23-.07.36-.07s.25.02.36.07c.11.05.21.11.3.2.08.08.15.18.2.3.05.11.07.23.07.36s-.02.25-.07.36-.11.21-.2.3c-.08.08-.18.15-.3.2-.11.05-.23.07-.36.07s-.25-.02-.36-.07c-.11-.05-.21-.11-.3-.2-.08-.08-.15-.18-.2-.3-.05-.11-.07-.23-.07-.36ZM203.01,60.18c0-.13.02-.25.07-.36.05-.11.11-.21.2-.3.08-.08.18-.15.3-.2.11-.05.23-.07.36-.07s.25.02.36.07c.11.05.21.11.3.2.08.08.15.18.2.3s.07.23.07.36-.02.25-.07.36-.11.21-.2.3c-.08.08-.18.15-.3.2-.11.05-.23.07-.36.07s-.25-.02-.36-.07c-.11-.05-.21-.11-.3-.2-.08-.08-.15-.18-.2-.3-.05-.11-.07-.23-.07-.36Z"/>
        <path class="cls-1" d="M205.44,57.94c0-.48.06-.91.19-1.3s.3-.72.52-1,.49-.49.8-.64c.31-.15.65-.23,1.03-.23s.71.08,1.02.23c.31.15.58.36.8.64.22.27.4.61.52,1,.12.39.19.82.19,1.3s-.06.91-.19,1.3c-.12.39-.3.72-.52,1-.22.28-.49.49-.8.64-.31.15-.65.23-1.02.23s-.72-.08-1.03-.23c-.31-.15-.58-.36-.8-.64-.22-.28-.4-.61-.52-1s-.19-.82-.19-1.3ZM206.98,57.94c0,.26.02.5.07.72s.12.4.2.56c.09.16.19.28.31.37.12.09.26.13.41.13s.28-.04.41-.13c.12-.09.23-.21.31-.37.08-.16.15-.35.2-.56.05-.22.07-.46.07-.72s-.02-.5-.07-.72c-.05-.22-.11-.41-.2-.56-.08-.16-.19-.28-.31-.37-.12-.09-.26-.13-.41-.13s-.29.04-.41.13c-.12.09-.23.21-.31.37-.09.16-.15.34-.2.56s-.07.46-.07.72Z"/>
        <path class="cls-1" d="M210.84,57.94c0-.48.06-.91.19-1.3s.3-.72.52-1,.49-.49.8-.64c.31-.15.65-.23,1.03-.23s.71.08,1.02.23c.31.15.58.36.8.64.22.27.4.61.52,1,.12.39.19.82.19,1.3s-.06.91-.19,1.3c-.12.39-.3.72-.52,1-.22.28-.49.49-.8.64-.31.15-.65.23-1.02.23s-.72-.08-1.03-.23c-.31-.15-.58-.36-.8-.64-.22-.28-.4-.61-.52-1s-.19-.82-.19-1.3ZM212.38,57.94c0,.26.02.5.07.72s.12.4.2.56c.09.16.19.28.31.37.12.09.26.13.41.13s.28-.04.41-.13c.12-.09.23-.21.31-.37.08-.16.15-.35.2-.56.05-.22.07-.46.07-.72s-.02-.5-.07-.72c-.05-.22-.11-.41-.2-.56-.08-.16-.19-.28-.31-.37-.12-.09-.26-.13-.41-.13s-.29.04-.41.13c-.12.09-.23.21-.31.37-.09.16-.15.34-.2.56s-.07.46-.07.72Z"/>
        <path class="cls-1" d="M220.95,54.96v3.25c0,.17,0,.35.02.54.01.18.05.35.12.5.07.15.17.27.31.36.14.09.34.14.6.14s.46-.05.6-.14c.14-.09.24-.21.31-.36.07-.15.11-.31.12-.5.01-.18.02-.36.02-.54v-3.25h1.55v3.47c0,.93-.21,1.61-.64,2.04-.43.43-1.08.64-1.96.64s-1.54-.21-1.97-.64c-.43-.43-.64-1.11-.64-2.04v-3.47h1.55Z"/>
        <path class="cls-1" d="M225.72,54.35h1.44v3.03c.2-.24.39-.4.59-.48.2-.08.44-.12.71-.12.51,0,.9.14,1.16.42.26.28.39.67.39,1.15v2.59h-1.44v-2.05c0-.21-.02-.37-.05-.5-.03-.13-.08-.23-.16-.29-.13-.11-.28-.17-.46-.17-.24,0-.43.07-.56.22-.13.15-.19.35-.19.62v2.17h-1.44v-6.58Z"/>
        <path class="cls-1" d="M230.99,56.87h1.44v.67c.15-.24.34-.43.56-.56.22-.13.48-.19.78-.19h.12s.1,0,.15.02v1.37c-.19-.1-.4-.14-.62-.14-.33,0-.58.1-.75.3-.17.2-.25.49-.25.87v1.75h-1.44v-4.07Z"/>
      </g>
      <g>
        <path class="cls-1" d="M14.48,98.12l1.22,2.69,1.27-2.69h1.13l1.27,2.77,1.28-2.77h2l-2.67,5.1h-1.2l-1.27-2.8-1.21,2.8h-1.22l-2.62-5.1h2.01Z"/>
        <path class="cls-1" d="M24.68,98.12l1.22,2.69,1.27-2.69h1.13l1.27,2.77,1.28-2.77h2l-2.67,5.1h-1.2l-1.27-2.8-1.21,2.8h-1.22l-2.62-5.1h2.01Z"/>
        <path class="cls-1" d="M34.88,98.12l1.22,2.69,1.27-2.69h1.13l1.27,2.77,1.28-2.77h2l-2.67,5.1h-1.2l-1.27-2.8-1.21,2.8h-1.22l-2.62-5.1h2.01Z"/>
        <path class="cls-1" d="M43.09,102.27c0-.16.03-.31.09-.45.06-.14.14-.27.25-.37.11-.11.23-.19.37-.25.14-.06.29-.09.45-.09s.31.03.45.09c.14.06.27.14.37.25s.19.23.25.37c.06.14.09.29.09.45s-.03.31-.09.45c-.06.14-.14.27-.25.37-.11.11-.23.19-.37.25-.14.06-.29.09-.45.09s-.31-.03-.45-.09c-.14-.06-.27-.14-.37-.25-.11-.11-.19-.23-.25-.37-.06-.14-.09-.29-.09-.45Z"/>
        <path class="cls-1" d="M49.94,99.43c-.33-.17-.66-.26-.98-.26-.17,0-.3.03-.4.1s-.15.16-.15.27c0,.06,0,.11.02.14.02.04.05.07.11.1.06.03.14.06.25.09s.25.06.43.1c.5.1.87.28,1.11.53s.37.58.37.98c0,.3-.06.57-.18.81-.12.24-.29.44-.5.6-.21.16-.47.29-.77.38-.3.09-.63.13-.99.13-.69,0-1.37-.2-2.04-.59l.66-1.27c.5.34.98.52,1.43.52.17,0,.3-.04.41-.11.11-.07.16-.17.16-.28,0-.07,0-.12-.02-.16-.02-.04-.05-.08-.1-.12-.05-.04-.13-.07-.23-.1-.1-.03-.24-.06-.4-.09-.56-.11-.95-.28-1.17-.5-.22-.22-.33-.53-.33-.92,0-.29.05-.54.16-.77.11-.23.26-.42.46-.58.2-.16.44-.28.72-.37.28-.09.6-.13.94-.13.56,0,1.11.11,1.64.33l-.61,1.17Z"/>
        <path class="cls-1" d="M51.42,100.63c0-.38.08-.73.23-1.06.15-.33.36-.61.64-.86.27-.24.6-.43.97-.57s.78-.21,1.23-.21.84.07,1.22.2c.37.14.7.32.98.57.27.24.49.53.64.87.15.33.23.7.23,1.11s-.08.77-.23,1.11c-.16.33-.37.62-.64.87-.27.24-.6.43-.98.56-.38.13-.79.2-1.24.2s-.84-.07-1.21-.2c-.37-.13-.69-.32-.96-.57-.27-.25-.48-.54-.63-.88-.15-.34-.23-.72-.23-1.14ZM53.32,100.65c0,.17.03.33.09.47.06.14.15.27.25.37.1.11.23.19.37.25s.29.09.45.09.31-.03.45-.09c.14-.06.27-.14.37-.25.1-.11.19-.23.25-.37.06-.14.09-.3.09-.46s-.03-.31-.09-.45-.15-.27-.25-.37c-.1-.11-.23-.19-.37-.25-.14-.06-.29-.09-.45-.09s-.31.03-.45.09c-.14.06-.27.14-.37.25-.1.11-.19.23-.25.37-.06.14-.09.29-.09.45Z"/>
        <path class="cls-1" d="M60.39,94.97v8.26h-1.8v-8.26h1.8Z"/>
        <path class="cls-1" d="M61.5,96.16c0-.14.03-.27.08-.39.05-.12.13-.23.22-.32s.2-.17.32-.22.25-.08.39-.08.27.03.39.08c.12.05.23.13.32.22s.17.2.22.32c.05.12.08.25.08.39s-.03.27-.08.39c-.05.12-.13.23-.22.32s-.2.17-.32.22c-.12.05-.25.08-.39.08s-.27-.03-.39-.08c-.12-.05-.23-.13-.32-.22s-.17-.2-.22-.32c-.05-.12-.08-.25-.08-.39ZM63.42,98.12v5.1h-1.8v-5.1h1.8Z"/>
        <path class="cls-1" d="M64.66,98.12h1.8v.65c.25-.3.49-.5.75-.6.25-.1.55-.15.89-.15.36,0,.67.06.92.17.26.12.47.28.65.49.15.17.25.36.3.58.05.21.08.45.08.73v3.24h-1.8v-2.58c0-.25-.02-.46-.05-.61-.04-.16-.1-.28-.19-.37-.08-.08-.17-.14-.27-.17s-.21-.05-.32-.05c-.31,0-.54.09-.7.27-.16.18-.24.44-.24.78v2.73h-1.8v-5.1Z"/>
        <path class="cls-1" d="M76.97,98.12v4.76c0,.29-.02.54-.05.77-.03.23-.08.42-.14.6-.08.22-.2.42-.37.61-.17.19-.37.35-.61.49s-.51.25-.81.33c-.3.08-.63.12-.98.12-.4,0-.76-.05-1.09-.15-.33-.1-.62-.24-.87-.41-.25-.18-.45-.38-.61-.62s-.27-.49-.32-.77h2.03c.13.34.41.51.86.51.38,0,.67-.11.87-.32.2-.21.3-.51.3-.89v-.49c-.13.13-.26.23-.38.31-.12.08-.25.15-.37.2-.13.05-.26.09-.4.11-.14.02-.29.04-.46.04-.36,0-.7-.06-1-.19-.31-.13-.57-.3-.79-.53s-.39-.5-.52-.81c-.12-.31-.18-.67-.18-1.05s.07-.75.2-1.09.31-.63.54-.88c.23-.25.5-.44.82-.59.31-.14.66-.21,1.03-.21.6,0,1.11.23,1.52.68v-.54h1.8ZM72.93,100.65c0,.17.03.32.09.46s.14.27.24.37c.1.11.23.19.37.25.14.06.3.09.46.09s.31-.03.45-.09c.14-.06.27-.14.37-.25.1-.11.19-.23.25-.37s.09-.29.09-.45-.03-.32-.09-.46c-.06-.14-.15-.26-.25-.37s-.23-.19-.37-.25c-.14-.06-.29-.09-.44-.09s-.31.03-.45.09c-.14.06-.26.15-.37.25-.11.1-.19.22-.25.36-.06.14-.09.29-.09.45Z"/>
        <path class="cls-1" d="M79.94,100.97c0,.78.36,1.16,1.09,1.16.39,0,.69-.16.89-.48h1.74c-.35,1.17-1.23,1.75-2.64,1.75-.43,0-.83-.06-1.18-.19-.36-.13-.67-.31-.92-.55s-.45-.52-.59-.86c-.14-.33-.21-.7-.21-1.11s.07-.81.2-1.15c.13-.34.32-.63.57-.87.25-.24.54-.42.89-.55.35-.13.74-.19,1.18-.19s.82.06,1.16.19c.34.13.64.32.88.56.24.25.42.55.55.9.13.35.19.75.19,1.2v.19h-3.79ZM82.05,99.93c-.06-.25-.18-.45-.37-.61-.19-.15-.41-.23-.68-.23-.28,0-.51.07-.68.22-.18.15-.29.35-.33.62h2.06Z"/>
        <path class="cls-1" d="M84.75,98.12h1.8v.84c.19-.31.43-.54.71-.7.28-.16.6-.24.98-.24h.15c.06,0,.12,0,.19.02v1.72c-.24-.12-.5-.18-.78-.18-.42,0-.73.12-.94.37-.21.25-.31.61-.31,1.09v2.19h-1.8v-5.1Z"/>
        <path class="cls-1" d="M89.1,99.81h2.86v1.5h-2.86v-1.5Z"/>
        <path class="cls-1" d="M95.96,99.43c-.33-.17-.66-.26-.98-.26-.17,0-.3.03-.4.1s-.15.16-.15.27c0,.06,0,.11.02.14.02.04.05.07.11.1.06.03.14.06.25.09s.25.06.43.1c.5.1.87.28,1.11.53s.37.58.37.98c0,.3-.06.57-.18.81-.12.24-.29.44-.5.6-.21.16-.47.29-.77.38-.3.09-.63.13-.99.13-.69,0-1.37-.2-2.04-.59l.66-1.27c.5.34.98.52,1.43.52.17,0,.3-.04.41-.11.11-.07.16-.17.16-.28,0-.07,0-.12-.02-.16-.02-.04-.05-.08-.1-.12-.05-.04-.13-.07-.23-.1-.1-.03-.24-.06-.4-.09-.56-.11-.95-.28-1.17-.5-.22-.22-.33-.53-.33-.92,0-.29.05-.54.16-.77.11-.23.26-.42.46-.58.2-.16.44-.28.72-.37.28-.09.6-.13.94-.13.56,0,1.11.11,1.64.33l-.61,1.17Z"/>
        <path class="cls-1" d="M101.49,99.77c-.31-.21-.63-.32-.95-.32-.17,0-.33.03-.48.09s-.28.14-.39.25c-.11.11-.2.24-.26.39s-.09.32-.09.5.03.34.09.49c.06.15.15.28.26.39.11.11.24.19.39.25.15.06.31.09.49.09.34,0,.65-.12.95-.35v1.53c-.44.19-.87.29-1.26.29-.37,0-.72-.06-1.06-.19s-.63-.31-.89-.54c-.26-.24-.46-.52-.61-.85-.15-.33-.23-.69-.23-1.1s.07-.77.22-1.11.34-.62.6-.87c.25-.24.55-.43.9-.57.35-.14.72-.2,1.12-.2.44,0,.84.09,1.21.28v1.53Z"/>
        <path class="cls-1" d="M102.76,94.97h1.8v3.8c.25-.3.49-.5.75-.6.25-.1.55-.15.89-.15.64,0,1.13.18,1.46.53.33.35.49.83.49,1.44v3.24h-1.8v-2.58c0-.26-.02-.47-.06-.63-.04-.16-.11-.28-.2-.37-.16-.14-.35-.21-.58-.21-.31,0-.54.09-.7.27-.16.18-.24.44-.24.78v2.73h-1.8v-8.26Z"/>
        <path class="cls-1" d="M109.37,98.12h1.8v.65c.25-.3.49-.5.75-.6.25-.1.55-.15.89-.15.36,0,.67.06.92.17.26.12.47.28.65.49.15.17.25.36.3.58.05.21.08.45.08.73v3.24h-1.8v-2.58c0-.25-.02-.46-.05-.61-.04-.16-.1-.28-.19-.37-.08-.08-.17-.14-.27-.17s-.21-.05-.32-.05c-.31,0-.54.09-.7.27-.16.18-.24.44-.24.78v2.73h-1.8v-5.1Z"/>
        <path class="cls-1" d="M117.59,100.97c0,.78.37,1.16,1.09,1.16.39,0,.69-.16.89-.48h1.74c-.35,1.17-1.23,1.75-2.64,1.75-.43,0-.83-.06-1.18-.19s-.67-.31-.92-.55c-.26-.24-.45-.52-.59-.86-.14-.33-.21-.7-.21-1.11s.07-.81.2-1.15c.13-.34.32-.63.57-.87s.54-.42.89-.55.74-.19,1.18-.19.82.06,1.16.19c.35.13.64.32.88.56.24.25.42.55.55.9.12.35.19.75.19,1.2v.19h-3.79ZM119.7,99.93c-.06-.25-.18-.45-.37-.61-.19-.15-.41-.23-.68-.23-.28,0-.51.07-.68.22-.18.15-.29.35-.33.62h2.06Z"/>
        <path class="cls-1" d="M122.29,96.16c0-.14.03-.27.08-.39.05-.12.13-.23.22-.32s.2-.17.32-.22.25-.08.39-.08.27.03.39.08.23.13.32.22.17.2.22.32c.05.12.08.25.08.39s-.03.27-.08.39c-.05.12-.13.23-.22.32s-.2.17-.32.22c-.12.05-.25.08-.39.08s-.27-.03-.39-.08c-.12-.05-.23-.13-.32-.22s-.17-.2-.22-.32c-.05-.12-.08-.25-.08-.39ZM124.21,98.12v5.1h-1.8v-5.1h1.8Z"/>
        <path class="cls-1" d="M129.38,94.97h1.81v8.26h-1.81v-.57c-.38.48-.91.73-1.56.73-.37,0-.71-.07-1.03-.21s-.58-.33-.82-.58c-.23-.25-.41-.53-.54-.87-.13-.33-.19-.69-.19-1.07,0-.36.06-.71.18-1.04.12-.33.3-.62.52-.86.23-.25.5-.44.81-.58.31-.14.66-.21,1.04-.21.64,0,1.16.22,1.58.67v-3.66ZM127.12,100.66c0,.17.03.32.09.46.06.14.14.27.24.37.1.11.22.19.37.25s.3.09.46.09.31-.03.45-.09.26-.14.37-.25c.1-.11.19-.23.25-.37.06-.14.09-.29.09-.45s-.03-.31-.09-.45c-.06-.14-.15-.27-.25-.37-.1-.11-.23-.19-.37-.25s-.29-.09-.45-.09-.31.03-.45.09-.27.14-.37.25c-.1.11-.19.23-.25.36-.06.14-.09.28-.09.44Z"/>
        <path class="cls-1" d="M133.91,98.12l1.22,2.69,1.27-2.69h1.13l1.27,2.77,1.28-2.77h2l-2.67,5.1h-1.2l-1.27-2.8-1.21,2.8h-1.22l-2.62-5.1h2.01Z"/>
        <path class="cls-1" d="M146.41,98.12h1.81v5.1h-1.81v-.57c-.38.48-.91.73-1.56.73-.37,0-.71-.07-1.03-.2-.31-.14-.58-.33-.82-.57-.23-.25-.41-.53-.54-.87-.13-.33-.19-.69-.19-1.08,0-.36.06-.71.19-1.04.13-.33.3-.62.53-.86.23-.25.49-.44.81-.58.31-.14.66-.21,1.03-.21.64,0,1.16.22,1.58.67v-.51ZM144.14,100.66c0,.17.03.32.09.46.06.14.14.27.24.37.1.11.22.19.37.25s.3.09.46.09.31-.03.45-.09.26-.14.37-.25c.1-.11.19-.23.25-.37.06-.14.09-.29.09-.45s-.03-.31-.09-.45c-.06-.14-.15-.27-.25-.37-.1-.11-.23-.19-.37-.25s-.29-.09-.45-.09-.32.03-.46.09-.26.14-.37.25c-.1.11-.18.23-.24.36-.06.14-.09.28-.09.44Z"/>
        <path class="cls-1" d="M149.44,98.12h1.8v.84c.19-.31.43-.54.71-.7s.6-.24.97-.24h.15c.06,0,.12,0,.19.02v1.72c-.24-.12-.5-.18-.78-.18-.42,0-.73.12-.94.37-.21.25-.31.61-.31,1.09v2.19h-1.8v-5.1Z"/>
        <path class="cls-1" d="M155.76,100.97c0,.78.37,1.16,1.09,1.16.39,0,.69-.16.89-.48h1.74c-.35,1.17-1.23,1.75-2.64,1.75-.43,0-.83-.06-1.18-.19-.36-.13-.67-.31-.92-.55-.26-.24-.45-.52-.59-.86-.14-.33-.21-.7-.21-1.11s.07-.81.2-1.15c.13-.34.32-.63.57-.87.25-.24.54-.42.89-.55.35-.13.74-.19,1.18-.19s.82.06,1.16.19c.35.13.64.32.88.56.24.25.42.55.55.9.13.35.19.75.19,1.2v.19h-3.79ZM157.87,99.93c-.06-.25-.18-.45-.37-.61-.19-.15-.41-.23-.68-.23s-.51.07-.68.22c-.18.15-.29.35-.33.62h2.06Z"/>
        <path class="cls-1" d="M160.57,98.12h1.8v.65c.25-.3.49-.5.75-.6s.55-.15.89-.15c.36,0,.66.06.92.17.25.12.47.28.65.49.15.17.25.36.3.58.05.21.08.45.08.73v3.24h-1.8v-2.58c0-.25-.02-.46-.05-.61-.04-.16-.1-.28-.19-.37-.08-.08-.17-.14-.27-.17-.1-.03-.21-.05-.32-.05-.31,0-.54.09-.7.27-.16.18-.24.44-.24.78v2.73h-1.8v-5.1Z"/>
        <path class="cls-1" d="M166.56,99.81h2.86v1.5h-2.86v-1.5Z"/>
        <path class="cls-1" d="M173.42,99.43c-.33-.17-.66-.26-.98-.26-.17,0-.3.03-.4.1-.1.07-.15.16-.15.27,0,.06,0,.11.02.14.02.04.05.07.11.1s.14.06.25.09.25.06.43.1c.5.1.87.28,1.11.53s.37.58.37.98c0,.3-.06.57-.18.81-.12.24-.29.44-.5.6-.21.16-.47.29-.77.38-.3.09-.63.13-.99.13-.69,0-1.37-.2-2.04-.59l.66-1.27c.5.34.98.52,1.43.52.17,0,.3-.04.41-.11.11-.07.16-.17.16-.28,0-.07,0-.12-.03-.16-.02-.04-.05-.08-.1-.12-.05-.04-.13-.07-.23-.1s-.24-.06-.4-.09c-.56-.11-.95-.28-1.17-.5-.22-.22-.33-.53-.33-.92,0-.29.05-.54.16-.77.11-.23.26-.42.46-.58.2-.16.44-.28.72-.37s.6-.13.94-.13c.56,0,1.11.11,1.64.33l-.61,1.17Z"/>
        <path class="cls-1" d="M179.04,98.12h1.81v5.1h-1.81v-.57c-.38.48-.91.73-1.56.73-.37,0-.71-.07-1.03-.2-.31-.14-.58-.33-.82-.57-.23-.25-.41-.53-.54-.87-.13-.33-.19-.69-.19-1.08,0-.36.06-.71.19-1.04.13-.33.3-.62.53-.86.23-.25.49-.44.81-.58.31-.14.66-.21,1.03-.21.64,0,1.16.22,1.58.67v-.51ZM176.77,100.66c0,.17.03.32.09.46.06.14.14.27.24.37.1.11.22.19.37.25s.3.09.46.09.31-.03.45-.09.26-.14.37-.25c.1-.11.19-.23.25-.37.06-.14.09-.29.09-.45s-.03-.31-.09-.45c-.06-.14-.15-.27-.25-.37-.1-.11-.23-.19-.37-.25s-.29-.09-.45-.09-.32.03-.46.09-.26.14-.37.25c-.1.11-.18.23-.24.36-.06.14-.09.28-.09.44Z"/>
        <path class="cls-1" d="M182.08,98.12h1.8v.63c.49-.47,1.04-.71,1.65-.71.76,0,1.33.32,1.73.96.4-.64.98-.96,1.73-.96.24,0,.46.03.68.1.21.07.39.18.55.33.15.15.27.34.36.58.09.24.13.53.13.87v3.31h-1.8v-2.52c0-.26-.02-.47-.05-.64-.04-.17-.09-.29-.16-.39-.07-.09-.15-.16-.24-.19s-.19-.05-.3-.05c-.58,0-.87.42-.87,1.26v2.52h-1.8v-2.52c0-.26-.02-.47-.05-.64-.03-.17-.08-.3-.14-.4-.06-.1-.14-.17-.24-.2s-.22-.05-.35-.05c-.11,0-.22.02-.32.05-.1.03-.19.1-.26.19s-.14.23-.18.4c-.04.17-.06.39-.06.66v2.52h-1.8v-5.1Z"/>
        <path class="cls-1" d="M195.33,99.43c-.33-.17-.66-.26-.98-.26-.17,0-.3.03-.4.1-.1.07-.15.16-.15.27,0,.06,0,.11.02.14.02.04.05.07.11.1s.14.06.25.09.25.06.43.1c.5.1.87.28,1.11.53s.37.58.37.98c0,.3-.06.57-.18.81-.12.24-.29.44-.5.6-.21.16-.47.29-.77.38-.3.09-.63.13-.99.13-.69,0-1.37-.2-2.04-.59l.66-1.27c.5.34.98.52,1.43.52.17,0,.3-.04.41-.11.11-.07.16-.17.16-.28,0-.07,0-.12-.03-.16-.02-.04-.05-.08-.1-.12-.05-.04-.13-.07-.23-.1s-.24-.06-.4-.09c-.56-.11-.95-.28-1.17-.5-.22-.22-.33-.53-.33-.92,0-.29.05-.54.16-.77.11-.23.26-.42.46-.58.2-.16.44-.28.72-.37s.6-.13.94-.13c.56,0,1.11.11,1.64.33l-.61,1.17Z"/>
        <path class="cls-1" d="M199.16,99.62v3.6h-1.8v-3.6h-.6v-1.5h.6v-1.53h1.8v1.53h1.02v1.5h-1.02Z"/>
        <path class="cls-1" d="M204.9,98.12h1.81v5.1h-1.81v-.57c-.38.48-.91.73-1.56.73-.37,0-.71-.07-1.03-.2-.31-.14-.58-.33-.82-.57-.23-.25-.41-.53-.54-.87-.13-.33-.19-.69-.19-1.08,0-.36.06-.71.19-1.04.13-.33.3-.62.53-.86.23-.25.49-.44.81-.58.31-.14.66-.21,1.03-.21.64,0,1.16.22,1.58.67v-.51ZM202.63,100.66c0,.17.03.32.09.46.06.14.14.27.24.37.1.11.22.19.37.25s.3.09.46.09.31-.03.45-.09.26-.14.37-.25c.1-.11.19-.23.25-.37.06-.14.09-.29.09-.45s-.03-.31-.09-.45c-.06-.14-.15-.27-.25-.37-.1-.11-.23-.19-.37-.25s-.29-.09-.45-.09-.32.03-.46.09-.26.14-.37.25c-.1.11-.18.23-.24.36-.06.14-.09.28-.09.44Z"/>
        <path class="cls-1" d="M213.64,98.12v4.76c0,.29-.02.54-.05.77-.03.23-.08.42-.14.6-.08.22-.2.42-.37.61-.17.19-.37.35-.61.49-.24.14-.51.25-.81.33-.3.08-.63.12-.98.12-.4,0-.76-.05-1.09-.15-.33-.1-.62-.24-.87-.41-.25-.18-.45-.38-.61-.62s-.27-.49-.32-.77h2.03c.13.34.41.51.86.51.38,0,.67-.11.87-.32.2-.21.3-.51.3-.89v-.49c-.13.13-.26.23-.38.31-.12.08-.25.15-.37.2-.13.05-.26.09-.4.11-.14.02-.29.04-.46.04-.37,0-.7-.06-1-.19-.3-.13-.57-.3-.79-.53-.22-.23-.39-.5-.52-.81-.12-.31-.18-.67-.18-1.05s.07-.75.2-1.09c.13-.33.31-.63.54-.88.23-.25.5-.44.82-.59.32-.14.66-.21,1.03-.21.6,0,1.11.23,1.52.68v-.54h1.8ZM209.6,100.65c0,.17.03.32.09.46s.14.27.24.37c.1.11.22.19.37.25.14.06.3.09.46.09s.31-.03.45-.09c.14-.06.26-.14.37-.25.1-.11.19-.23.25-.37.06-.14.09-.29.09-.45s-.03-.32-.09-.46c-.06-.14-.15-.26-.25-.37-.11-.11-.23-.19-.37-.25-.14-.06-.29-.09-.44-.09s-.31.03-.45.09c-.14.06-.26.15-.37.25-.11.1-.19.22-.25.36-.06.14-.09.29-.09.45Z"/>
        <path class="cls-1" d="M214.78,102.27c0-.16.03-.31.09-.45s.14-.27.25-.37c.11-.11.23-.19.37-.25.14-.06.29-.09.45-.09s.31.03.45.09c.14.06.27.14.37.25.11.11.19.23.25.37s.09.29.09.45-.03.31-.09.45-.14.27-.25.37c-.11.11-.23.19-.37.25-.14.06-.29.09-.45.09s-.31-.03-.45-.09c-.14-.06-.27-.14-.37-.25-.11-.11-.19-.23-.25-.37s-.09-.29-.09-.45Z"/>
        <path class="cls-1" d="M222.19,94.97h1.81v8.26h-1.81v-.57c-.38.48-.91.73-1.56.73-.37,0-.71-.07-1.03-.21s-.58-.33-.82-.58c-.23-.25-.41-.53-.54-.87-.13-.33-.19-.69-.19-1.07,0-.36.06-.71.18-1.04.12-.33.3-.62.52-.86.23-.25.5-.44.81-.58.31-.14.66-.21,1.04-.21.64,0,1.16.22,1.58.67v-3.66ZM219.92,100.66c0,.17.03.32.09.46.06.14.14.27.24.37.1.11.22.19.37.25s.3.09.46.09.31-.03.45-.09.26-.14.37-.25c.1-.11.19-.23.25-.37.06-.14.09-.29.09-.45s-.03-.31-.09-.45c-.06-.14-.15-.27-.25-.37-.1-.11-.23-.19-.37-.25s-.29-.09-.45-.09-.31.03-.45.09-.27.14-.37.25c-.1.11-.19.23-.25.36-.06.14-.09.28-.09.44Z"/>
        <path class="cls-1" d="M226.85,100.97c0,.78.37,1.16,1.09,1.16.39,0,.69-.16.89-.48h1.74c-.35,1.17-1.23,1.75-2.64,1.75-.43,0-.83-.06-1.18-.19-.36-.13-.67-.31-.92-.55-.26-.24-.45-.52-.59-.86-.14-.33-.21-.7-.21-1.11s.07-.81.2-1.15c.13-.34.32-.63.57-.87.25-.24.54-.42.89-.55.35-.13.74-.19,1.18-.19s.82.06,1.16.19c.35.13.64.32.88.56.24.25.42.55.55.9.13.35.19.75.19,1.2v.19h-3.79ZM228.96,99.93c-.06-.25-.18-.45-.37-.61-.19-.15-.41-.23-.68-.23s-.51.07-.68.22c-.18.15-.29.35-.33.62h2.06Z"/>
      </g>
    </g>
  </g>
</svg>