<?xml version="1.0" encoding="UTF-8"?>
<svg id="Ebene_2" data-name="Ebene 2" xmlns="http://www.w3.org/2000/svg" viewBox="0 0 526.95 528.54">
  <defs>
    <style>
      .cls-1 {
        fill: #fff;
      }

      .cls-2 {
        fill: none;
        stroke: #fff;
        stroke-miterlimit: 3.86;
        stroke-width: 8.5px;
      }

      .cls-3 {
        fill: #ca0928;
      }
    </style>
  </defs>
  <g id="Ebene_1-2" data-name="Ebene 1">
    <g>
      <rect class="cls-3" width="526.95" height="528.54"/>
      <path class="cls-2" d="M87.13,356.27l-29.05,58.1h422.05l-34.19-66.62M211.86,129.02l61.51-97.4,93.12,170.86"/>
      <path class="cls-1" d="M71.44,206.43s1.35-4.61,5.39-4.61,27.86,1.36,27.86,1.36c0,0,0-15.69,22.18-34.09,7.94-6.58,16.82-12.33,21.8-15.39,9.93-6.06,21.03-10.28,30.37-12.76,22.44-5.95,35.17-2.17,41.64-.54,6.48,1.63,15.47,7.6,13.24,18.99-2.43,12.33-18.34,24.18-27.31,30.41-6.68,4.61-25.05,13.71-38.76,18.03-15.92,5.02-30.73,5.38-30.73,5.38,0,0-1.27,9.83,7.37,15.53,5.79,3.81,13.21,1.47,9.96,9.62-.81,1.96-7.31,3.9-12.82,4.56-5.86.69-13.8,2.45-19.64,4.12-11.35,3.25-25.62,10.96-33.19,20.69-7.6,9.73-15.39,23.09-7.72,41.4,7.03,16.79,17.58,26.78,27.3,32.2,6.78,3.75,43.7,15.67,43.7,15.67,0,0,41.65,10.84,64.36,12.45,22.75,1.61,58.49,5.3,94.67.56,45.06-5.95,69.37-12.89,102.25-31.41,17.31-9.73,30.85-24.34,35.19-36.24,4.31-11.89,2.7-20.01,1.06-28.12-1.61-8.12-4.34-15.14-12.42-23.8-8.11-8.67-15.7-14.6-33.54-19.48-17.87-4.86-36.8-5.42-36.8-5.42l-37.32-.54s-19.48,27.6-33.54,41.13c-14.06,13.54-24.87,22.18-24.87,22.18,0,0-9.49,6.36-3.25,17.87,3.22,5.95,5.42,5.39,9.2,6.48,3.78,1.08,14.06-1.61,21.65-9.73,7.56-8.12,9.93-17.14,9.93-17.14,0,0-8.17-15.97-.21-22.21,8-6.27,11.89-2.86,14.62-.15,2.69,2.7,4.31,9.21,3.22,14.6-1.08,5.42-.53,4.51-.53,4.51,0,0,2.43,3.6,7.3,5.77,4.89,2.17,6.33,1.58,6.33,1.58,0,0,6.59-22.35,25.84-33.27,15.59-8.82,27.83-9.32,42.77-1.84,11.89,5.95,6.47,17.86,5.39,20.56-1.08,2.7-8.61,13.62-19.48,19.48-12.98,7-29.18,7.56-29.18,7.56,0,0-3.49,12.36,4.31,17.05,7.27,4.37,15.21,2.93,23.55-.82,10.58-4.78,11.63-9.2,17.58-14.59,5.95-5.42,10.81-9.2,12.42-6.5,1.64,2.7-3.54,10.84-6.77,14.62-3.25,3.78-11.66,12.89-24.05,17.84-17.4,6.97-27.6,5.39-32.72,4.34-7.18-1.49-18.72-6.74-21.94-19.48-1.05-4.31-1.05-14.62-1.05-14.62l-17.05-8.91s-14.65,22.41-31.9,31.91c-10.84,5.95-19.75,7.32-26.21,7.06-10.47-.44-13.83-4.34-17.36-7.32-2.9-2.46-6.49-8.64-6.49-8.64,0,0-20.01,10.81-33.53,13.51-13.54,2.73-28.68,4.34-33.02,0-4.34-4.33-6.3-8.7-2.97-19.19,2.7-8.47,7.74-13.42,10.81-17.58,4.56-6.15,6.24-11.63,6.52-15.15.18-2.4-1.38-5.42-5.16-3.25-3.78,2.17-24.35,20.01-34.07,24.87-9.74,4.86-33,18.93-37.87,15.7-4.88-3.28.54-10.28,2.71-13.01,2.15-2.7,8.11-1.61,14.59-3.78,6.49-2.17,33.02-18.6,37.88-21.85s8.82-4.1,4.86-11.68c-4.95-9.51-6.03-12.74-2.28-20.29,2.78-5.58,8.29-9.08,13.09-10,7.06-1.38,12.73,0,11.65,9.74-1.07,9.74-2.71,12.17-1.63,14.33,1.08,2.15,4.6,3.51,13.24,3.51s11.91,1.61,13.53,6.48c1.63,4.89-.38,9.9-4.86,17.05-7.34,11.69-12.99,24.61-12.99,24.61,0,0-1.08,5.39.54,8.12,1.61,2.73,8.42,1.88,14.38-.29,5.95-2.14,25.11-15.38,25.11-15.38,0,0,2.17-16.23,5.95-28.12,3.81-11.92,9.74-26.52,9.74-26.52,0,0-1.16-.92-4.32,0-4.63,1.35-12.75,6.23-15.97,5.68-3.25-.54-6.83-3.78-2.96-7.31,4.69-4.26,18.46-7.59,18.46-7.59l18.87-6.2s13.48-22,26.51-31.11c10.78-7.57,19.42-9.43,31.35-8.51,5.39.41,8.12,5.27,8.67,9.05.53,3.78-.56,16.23-.56,16.23,0,0,29.03-.57,41.63.65,12.57,1.23,32.7,4.34,44.74,8.13,12.04,3.78,34.36,12.58,43.3,21.65,8.94,9.07,14.53,16.02,16.93,27.87,2.02,10.02.53,21.5-2.05,28.01-2.58,6.5-5.42,12.45-11.22,18.81-4.77,5.21-9.2,10.81-19.77,17.2-10.55,6.36-19.75,11.87-33.13,16.5-13.39,4.6-24.79,8.5-37.47,11.37-12.71,2.81-31.93,7.03-40.72,7.97-8.82.97-46.03,5.83-67.68,5.3-21.65-.56-29.59.21-58.71-2.84-27.3-2.87-47.23-7.06-55.34-8.94-8.12-1.9-27.35-6.24-38.44-10.28-11.07-4.07-37.76-14.53-48.43-23.29-11.26-9.23-20.07-16.82-23.82-32.72-2.43-10.28.44-20.66,3.11-25.84,4.33-8.41,9.87-14.49,16.11-19.64,6.21-5.14,14.12-9.87,21.5-12.71,8.38-3.25,13.39-4.88,19.63-5.82,6.21-.95,10.69-1.08,11.63-1.63.94-.56,1.76-.82-.94-4.06-2.71-3.25-6.37-8.26-6.37-8.26l-6.36-8.66s-20.43-1.08-23.82-1.49c-3.38-.39-5-1.22-5.82-3.11-.82-1.89-.67-2.97-.67-2.97"/>
      <path class="cls-3" d="M365.9,293.11s2.11.88,5.59.32c3.49-.5,8.58-3.13,13.65-6.62,5.07-3.49,9.08-9.64,11.89-15.03,2.78-5.42,2.08-8.4,1.02-10.67-1.02-2.27-3.49-3.68-6.65-2.64-3.13,1.07-8.38,4.2-16.61,14.71-8.2,10.49-8.91,19.92-8.91,19.92"/>
      <path class="cls-3" d="M284.11,235.06s-1.93,2.78-3.52,6.28c-1.55,3.5-9.96,23.25-11.18,27.44-1.22,4.22-1.74,4.39-1.74,6.83s1.57.35,1.57.35c0,0,6.46-5.24,11.35-9.78,4.92-4.55,14.35-15.56,18.72-20.81s9.96-12.93,11.02-15.73c1.05-2.8-4.36-1.76-9.81-.53-7.24,1.63-16.41,5.95-16.41,5.95"/>
      <path class="cls-3" d="M294.07,219.68l.35,1.21h1.05s6.45-1.05,9.08-1.39l11.19-1.41s2.08-3.5,2.96-6.12c.88-2.64,1.58-6.83,1.41-8.23-.18-1.38-1.58-3.31-2.64-3.66-1.03-.35-4.19.19-10.46,4.37-6.3,4.2-12.95,15.24-12.95,15.24"/>
      <path class="cls-3" d="M139.17,200.61l3.53.54s2.83-.28,11.62-2.3c8.82-2.04,16.93-5.68,25.99-10.02,9.08-4.32,18.55-10.82,26.1-16.77,7.59-5.96,10.17-10.28,12.06-13.12,1.89-2.84,1.48-5.29.81-6.77-.67-1.49-2.17-2.43-9.73-2.17-8.54.28-18.96,2.97-23.97,4.88-5.01,1.89-15.56,6.49-28.4,17.86-12.85,11.35-18,27.88-18,27.88"/>
      <path class="cls-1" d="M77.51,452.39c-3.91-2.2-9.36-3.54-13.8-3.54-8.83,0-15.21,5.74-15.21,14.5s4.72,10.22,11.92,12.22c2.46.7,6.96,1.79,6.96,4.95s-2.86,4.36-5.55,4.36c-3.93,0-7.32-2.02-10.2-4.48l-4.91,9.05c4.51,3.11,9.94,4.95,15.51,4.95,4.44,0,9.07-1.2,12.51-4.07,3.52-2.93,4.57-7.35,4.57-11.66,0-7-4.75-10.05-10.87-11.81l-2.94-.88c-1.98-.62-5.08-1.61-5.08-4.13s2.8-3.6,4.89-3.6c2.83,0,5.51,1.14,7.63,2.87l4.56-8.73Z"/>
      <path class="cls-1" d="M124.47,448.53c-12.69,0-24.4,9.2-24.4,22.29,0,13.98,10.25,23.88,24.4,23.88s24.4-9.9,24.4-23.88c0-13.09-11.69-22.29-24.4-22.29M124.47,459.45c6.85,0,12.48,5.45,12.48,11.43,0,7.44-5.62,12.92-12.48,12.92s-12.45-5.48-12.45-12.92c0-5.98,5.62-11.43,12.45-11.43"/>
      <polygon class="cls-1" points="183.21 449.99 171.72 449.99 171.72 493.26 196.95 493.26 196.95 483.74 183.21 483.74 183.21 449.99"/>
      <rect class="cls-1" x="218.22" y="449.99" width="11.48" height="43.24"/>
      <polygon class="cls-1" points="254.74 493.26 266.21 493.26 266.21 466.72 266.32 466.72 287.33 493.26 298.79 493.26 298.79 449.99 287.33 449.99 287.33 476.45 287.21 476.45 266.21 449.99 254.74 449.99 254.74 493.26"/>
      <path class="cls-1" d="M345.05,469.09v8.85h9.38c-.47,4.98-4.28,7.5-9.23,7.5-7.56,0-11.66-6.83-11.66-13.54s3.93-13.68,11.45-13.68c4.63,0,7.97,2.78,9.55,6.89l10.87-4.45c-3.78-8.08-10.81-12.1-19.89-12.1-14.21,0-23.91,9.23-23.91,23.29s9.64,22.85,23.52,22.85c7.35,0,13.86-2.61,18.19-8.5,3.9-5.39,4.36-10.78,4.48-17.11h-22.76Z"/>
      <polygon class="cls-1" points="415.71 459.51 415.71 449.99 390.63 449.99 390.63 493.26 415.71 493.26 415.71 483.74 402.09 483.74 402.09 476.27 415 476.27 415 466.75 402.09 466.75 402.09 459.51 415.71 459.51"/>
      <polygon class="cls-1" points="440.35 493.26 451.8 493.26 451.8 466.72 451.92 466.72 472.92 493.26 484.38 493.26 484.38 449.99 472.92 449.99 472.92 476.45 472.81 476.45 451.8 449.99 440.35 449.99 440.35 493.26"/>
    </g>
  </g>
</svg>